<svg width="29" height="29" viewBox="0 0 29 29" fill="none" xmlns="http://www.w3.org/2000/svg">
<path d="M12.2173 17.0852C11.9815 16.8494 11.9815 16.4583 12.2173 16.2225L15.3688 13.071L10.5035 8.20565C10.2217 7.93535 9.78462 7.93535 9.50857 8.2114C6.12123 11.5987 6.12123 16.3261 9.50857 19.7134C12.8959 23.1007 17.6232 23.1007 21.0106 19.7134C21.2809 19.4431 21.2866 19.0003 21.0106 18.7242L16.22 13.9336L13.0742 17.0794C12.8384 17.3267 12.4531 17.321 12.2173 17.0852Z" fill="#F2E6D0"/>
<path d="M19.1932 9.49968L15.9209 9.49393C15.5874 9.49393 15.3113 9.76998 15.3113 10.1035C15.3113 10.4371 15.5874 10.7131 15.9209 10.7131L17.7152 10.7131L15.3573 13.0711L16.22 13.9337L18.5721 11.5815L18.5721 13.3759C18.5721 13.7094 18.8482 13.9855 19.1817 13.9855C19.3543 13.9855 19.5038 13.9165 19.6131 13.8072C19.7223 13.6979 19.7913 13.5484 19.7913 13.3759L19.7856 10.1035C19.7971 9.76998 19.5268 9.49968 19.1932 9.49968Z" fill="#F2E6D0"/>
</svg>
